<svg width="60" height="53" viewBox="0 0 60 53" fill="none" xmlns="http://www.w3.org/2000/svg">
<path d="M5 32.2609C5.69444 32.2609 6.18056 31.8768 6.45833 31.1087C6.73611 30.3406 6.73611 29.5725 6.45833 28.8043C6.18056 28.0362 5.69444 27.6522 5 27.6522C4.30556 27.6522 3.81944 28.0362 3.54167 28.8043C3.26389 29.5725 3.26389 30.3406 3.54167 31.1087C3.81944 31.8768 4.30556 32.2609 5 32.2609ZM43.3594 30.1726C43.1858 29.8605 42.8516 29.2604 42.3568 28.3723C41.862 27.4842 41.5017 26.8361 41.276 26.428C41.0503 26.0199 40.7205 25.4318 40.2865 24.6637C39.8524 23.8956 39.4835 23.2595 39.1797 22.7554C38.8759 22.2514 38.5243 21.6873 38.125 21.0632C37.7257 20.4391 37.3351 19.851 36.9531 19.2989L33.6979 24.3397C32.2569 26.596 30.447 27.7002 28.2682 27.6522C26.0894 27.6042 24.3056 26.428 22.9167 24.1236C21.9271 22.4674 21.4366 20.5711 21.4453 18.4348C21.454 16.2985 21.9618 14.4142 22.9687 12.7819L27.5781 5.36481C27.1962 5.10077 26.7535 4.90274 26.25 4.77072C25.7465 4.6387 25.3342 4.56669 25.013 4.55469C24.6918 4.54269 24.2014 4.54869 23.5417 4.57269C22.8819 4.59669 22.4566 4.6087 22.2656 4.6087C20.6684 4.6087 19.2969 5.40082 18.151 6.98505L14.0365 12.6739H10V32.2609C10.0868 32.2609 10.2691 32.2549 10.5469 32.2429C10.8247 32.2309 11.0156 32.2309 11.1198 32.2429C11.224 32.2549 11.3932 32.2789 11.6276 32.3149C11.862 32.3509 12.0399 32.4049 12.1615 32.4769C12.283 32.5489 12.4349 32.6509 12.6172 32.783C12.7995 32.915 12.9601 33.077 13.099 33.269L20.8333 43.7826C22.8299 46.447 24.8003 47.7792 26.7448 47.7792C28.099 47.7792 29.184 47.2151 30 46.087C30.9896 46.567 31.9661 46.471 32.9297 45.7989C33.8932 45.1268 34.5226 44.1067 34.8177 42.7385C36.1024 42.8825 37.2049 42.3544 38.125 41.1542C38.4722 40.7221 38.7847 40.1761 39.0625 39.516C39.3403 38.8559 39.4618 38.2498 39.4271 37.6977C39.6007 37.9377 39.974 38.0577 40.5469 38.0577C41.2934 38.0577 41.9618 37.8057 42.5521 37.3016C43.1424 36.7976 43.572 36.1615 43.8411 35.3933C44.1102 34.6252 44.2144 33.7671 44.1536 32.819C44.0929 31.8708 43.8281 30.9887 43.3594 30.1726ZM47.5 32.2609H50V13.8261H47.5781L43.4896 7.34511C42.3437 5.52083 40.8767 4.6087 39.0885 4.6087H34.7396C33.1944 4.6087 31.9271 5.41282 30.9375 7.02106L25.4948 15.7704C25.0087 16.5625 24.7656 17.4626 24.7656 18.4708C24.7656 19.4789 25 20.3791 25.4687 21.1712C26.2153 22.3954 27.1701 23.0195 28.3333 23.0435C29.4965 23.0675 30.4601 22.4794 31.224 21.2792L36.25 13.43C36.684 12.8779 37.1484 12.6199 37.6432 12.6559C38.138 12.6919 38.546 13.016 38.8672 13.6281C39.1884 14.2402 39.2622 14.9183 39.0885 15.6624C39.3663 16.1184 39.8524 16.8745 40.5469 17.9307C41.2413 18.9869 41.7622 19.803 42.1094 20.3791C42.6128 21.2432 43.329 22.5094 44.2578 24.1777C45.1866 25.8459 45.7465 26.8601 45.9375 27.2201C46.8403 28.8043 47.3611 30.4846 47.5 32.2609ZM55 32.2609C55.6944 32.2609 56.1806 31.8768 56.4583 31.1087C56.7361 30.3406 56.7361 29.5725 56.4583 28.8043C56.1806 28.0362 55.6944 27.6522 55 27.6522C54.3056 27.6522 53.8194 28.0362 53.5417 28.8043C53.2639 29.5725 53.2639 30.3406 53.5417 31.1087C53.8194 31.8768 54.3056 32.2609 55 32.2609ZM60 11.5217V34.5652C60 35.1893 59.8351 35.7294 59.5052 36.1855C59.1753 36.6415 58.7847 36.8696 58.3333 36.8696H47.0312C46.5625 38.4298 45.8507 39.708 44.8958 40.7041C43.941 41.7003 42.8559 42.3184 41.6406 42.5584C41.0677 43.7106 40.3689 44.6887 39.5443 45.4929C38.7196 46.297 37.8299 46.8431 36.875 47.1311C36.1458 48.4033 35.2387 49.3815 34.1536 50.0656C33.0686 50.7497 31.9531 51.0437 30.8073 50.9477C29.7656 51.7638 28.6719 52.2379 27.526 52.3699C26.3802 52.5019 25.2734 52.3339 24.2057 51.8658C23.138 51.3978 22.1224 50.7557 21.1589 49.9395C20.1953 49.1234 19.2969 48.1513 18.4635 47.0231L10.9896 36.8696H1.66667C1.21528 36.8696 0.824653 36.6415 0.494792 36.1855C0.164931 35.7294 0 35.1893 0 34.5652V10.3696C0 9.74547 0.164931 9.20539 0.494792 8.74932C0.824653 8.29325 1.21528 8.06522 1.66667 8.06522H12.6302C12.8733 7.72917 13.2812 7.15308 13.8542 6.33696C14.4271 5.52083 14.8394 4.94475 15.0911 4.6087C15.3429 4.27265 15.7248 3.79257 16.237 3.16848C16.7491 2.54438 17.1875 2.09432 17.5521 1.81827C17.9167 1.54223 18.3594 1.23619 18.8802 0.900136C19.401 0.564085 19.9392 0.33005 20.4948 0.19803C21.0503 0.06601 21.6406 0 22.2656 0H25.3125C27.0312 0 28.6024 0.672102 30.026 2.0163C31.4497 0.672102 33.0208 0 34.7396 0H39.0885C39.6962 0 40.2778 0.0720109 40.8333 0.216033C41.3889 0.360054 41.8793 0.534081 42.3047 0.738111C42.73 0.942142 43.1771 1.26019 43.6458 1.69226C44.1146 2.12432 44.5009 2.49638 44.8047 2.80842C45.1085 3.12047 45.4818 3.59454 45.9245 4.23064C46.3672 4.86673 46.7057 5.37081 46.9401 5.74287C47.1745 6.11492 47.5304 6.69101 48.0078 7.47113C48.4852 8.25125 48.8455 8.83333 49.0885 9.21739H58.3333C58.7847 9.21739 59.1753 9.44543 59.5052 9.9015C59.8351 10.3576 60 10.8976 60 11.5217Z" fill="#EF7D86"/>
</svg>
