<svg width="60" height="62" viewBox="0 0 60 62" fill="none" xmlns="http://www.w3.org/2000/svg">
<path fill-rule="evenodd" clip-rule="evenodd" d="M38.593 32.1514C38.0965 30.808 37.1772 29.6449 35.9614 28.8222C34.7457 27.9996 33.2934 27.5578 31.8044 27.5578V25.8354H28.205V27.5578C26.2957 27.5578 24.4647 28.2837 23.1146 29.5757C21.7646 30.8677 21.0061 32.6201 21.0061 34.4473C21.0061 36.2745 21.7646 38.0268 23.1146 39.3189C24.4647 40.6109 26.2957 41.3367 28.205 41.3367V48.2262C26.6392 48.2262 25.3056 47.2703 24.8089 45.9303C24.7352 45.7111 24.6163 45.5082 24.4593 45.3337C24.3022 45.1592 24.1102 45.0166 23.8946 44.9144C23.679 44.8122 23.4441 44.7524 23.2039 44.7385C22.9637 44.7247 22.723 44.7571 22.4961 44.8338C22.2692 44.9105 22.0607 45.03 21.8829 45.1852C21.7051 45.3404 21.5616 45.5281 21.461 45.7373C21.3603 45.9465 21.3045 46.1728 21.2969 46.403C21.2892 46.6332 21.3299 46.8625 21.4164 47.0774C21.9129 48.4208 22.8323 49.5839 24.048 50.4065C25.2637 51.2292 26.7161 51.6709 28.205 51.6709V53.3933H31.8044V51.6709C33.7137 51.6709 35.5448 50.9451 36.8948 49.6531C38.2449 48.361 39.0033 46.6087 39.0033 44.7815C39.0033 42.9543 38.2449 41.2019 36.8948 39.9099C35.5448 38.6179 33.7137 37.892 31.8044 37.892V31.0025C32.5488 31.0024 33.275 31.2231 33.8828 31.6342C34.4907 32.0454 34.9504 32.6269 35.1987 33.2985C35.3576 33.7292 35.6889 34.0819 36.1196 34.2789C36.3328 34.3765 36.564 34.4329 36.8001 34.445C37.0361 34.457 37.2723 34.4244 37.4951 34.3491C37.718 34.2738 37.9232 34.1572 38.099 34.006C38.2748 33.8548 38.4177 33.6719 38.5197 33.4678C38.6216 33.2638 38.6806 33.0425 38.6931 32.8166C38.7057 32.5907 38.6717 32.3647 38.593 32.1514V32.1514ZM28.205 31.0025C27.2504 31.0025 26.3348 31.3655 25.6598 32.0115C24.9848 32.6575 24.6055 33.5337 24.6055 34.4473C24.6055 35.3609 24.9848 36.2371 25.6598 36.8831C26.3348 37.5291 27.2504 37.892 28.205 37.892V31.0025ZM31.8044 48.2262C32.7591 48.2262 33.6746 47.8633 34.3496 47.2173C35.0246 46.5713 35.4039 45.6951 35.4039 44.7815C35.4039 43.8679 35.0246 42.9917 34.3496 42.3457C33.6746 41.6997 32.7591 41.3367 31.8044 41.3367V48.2262Z" fill="#EF7D86"/>
<path fill-rule="evenodd" clip-rule="evenodd" d="M10.4831 4.51432C14.8996 2.44576 22.1453 0 30.0749 0C37.8389 0 44.8938 2.34414 49.2869 4.38514L49.5352 4.50054C50.8598 5.12748 51.9289 5.71998 52.6812 6.20052L46.033 15.5013C61.3594 30.4962 73.198 62 30.0749 62C-13.0482 62 -1.52822 31.068 13.9314 15.5013L7.3264 6.20052C7.83572 5.88188 8.48182 5.51157 9.2521 5.11887C9.63364 4.92252 10.044 4.721 10.4831 4.51604V4.51432ZM41.7605 15.3773L47.0822 7.93149C42.133 8.27252 36.2443 9.38517 30.5752 10.956C26.5258 12.0755 22.0265 11.905 17.8602 11.1695C16.8103 10.9833 15.7676 10.7615 14.7341 10.5047L18.1895 15.3738C25.5954 17.8971 34.3528 17.8971 41.7605 15.3773V15.3773ZM16.1108 18.3087C24.7765 21.5123 35.1915 21.5123 43.8571 18.3053C47.4743 21.9545 50.5002 26.1014 52.8341 30.6082C55.2674 35.3584 56.5919 40.107 56.376 44.1993C56.1672 48.1487 54.5439 51.5228 50.8364 54.0306C46.9724 56.6434 40.4737 58.5553 30.0731 58.5553C19.6617 58.5553 13.1323 56.6762 9.23231 54.0926C5.49789 51.6158 3.85834 48.2882 3.62618 44.3923C3.38321 40.3447 4.67901 35.6202 7.10324 30.8372C9.41588 26.2764 12.6428 21.8861 16.1108 18.3087V18.3087ZM14.0412 6.74478C15.4809 7.15471 16.9855 7.51124 18.5117 7.78165C22.3811 8.4637 26.2613 8.5636 29.5727 7.64558C33.4317 6.5697 37.3566 5.72354 41.3249 5.11198C38.0134 4.15779 34.1404 3.44473 30.0731 3.44473C23.873 3.44473 18.0905 5.09993 14.0412 6.74478V6.74478Z" fill="#EF7D86"/>
</svg>
