<svg width="60" height="53" viewBox="0 0 60 53" fill="none" xmlns="http://www.w3.org/2000/svg">
<path d="M30 39.7032C27.6131 39.7032 25.3239 38.7379 23.636 37.0196C21.9482 35.3014 21 32.9709 21 30.5409C21 27.1203 22.83 24.1273 25.5 22.5697L54.63 5.40574L38.04 34.664C36.54 37.657 33.51 39.7032 30 39.7032ZM30 0C35.43 0 40.5 1.52705 44.91 4.0314L38.61 7.72686C36 6.68846 33 6.10819 30 6.10819C23.6348 6.10819 17.5303 8.68234 13.0295 13.2644C8.52858 17.8464 6.00002 24.061 6.00002 30.5409C6.00002 37.2905 8.67001 43.3987 13.02 47.7966H13.05C14.22 48.9876 14.22 50.9117 13.05 52.1028C11.88 53.2939 9.96001 53.2939 8.79001 52.1334C5.99994 49.3011 3.78709 45.9356 2.27862 42.2301C0.770149 38.5245 -0.00421721 34.5521 1.72731e-05 30.5409C1.72731e-05 22.441 3.16072 14.6728 8.78681 8.94523C14.4129 3.2177 22.0435 0 30 0ZM60 30.5409C60 38.9702 56.64 46.6055 51.21 52.1334C50.04 53.2939 48.15 53.2939 46.98 52.1028C46.7019 51.8203 46.4812 51.4847 46.3307 51.1152C46.1802 50.7457 46.1027 50.3497 46.1027 49.9497C46.1027 49.5497 46.1802 49.1536 46.3307 48.7842C46.4812 48.4147 46.7019 48.0791 46.98 47.7966C49.2111 45.5345 50.9801 42.845 52.185 39.8834C53.3899 36.9218 54.0067 33.7465 54 30.5409C54 27.4868 53.43 24.4327 52.38 21.6841L56.01 15.2705C58.5 19.8516 60 24.9825 60 30.5409Z" fill="#EF7D86"/>
</svg>
